<svg width="24" height="24" viewBox="0 0 24 24" fill="none" xmlns="http://www.w3.org/2000/svg">
<path fill-rule="evenodd" clip-rule="evenodd" d="M9.66665 19C4.51199 19 0.333313 14.8213 0.333313 9.66668C0.333313 4.51202 4.51199 0.333344 9.66665 0.333344C14.8213 0.333344 19 4.51202 19 9.66668C19 11.8235 18.2684 13.8095 17.0398 15.3899L23.3249 21.6751L21.675 23.325L15.3899 17.0398C13.8094 18.2684 11.8235 19 9.66665 19ZM16.6667 9.66668C16.6667 13.5327 13.5326 16.6667 9.66665 16.6667C5.80066 16.6667 2.66665 13.5327 2.66665 9.66668C2.66665 5.80069 5.80066 2.66668 9.66665 2.66668C13.5326 2.66668 16.6667 5.80069 16.6667 9.66668Z" fill="white"/>
</svg>
